<svg xmlns="http://www.w3.org/2000/svg" width="800" height="600">
<text x="400" y="30" text-anchor="middle" font-size="18">Algorithm 3: Space usage</text>
<text x="400" y="585" text-anchor="middle" font-size="14">log10(Theoretical space)</text>
<text x="20" y="300" transform="rotate(-90,20,300)" text-anchor="middle" font-size="14">log10(Expanded nodes)</text>
<circle cx="50.00" cy="550.00" r="5" fill="#1f77b4" />
<text x="56.00" y="544.00" font-size="10">capability1</text>
<circle cx="284.22" cy="395.03" r="5" fill="#1f77b4" />
<text x="290.22" y="389.03" font-size="10">capability10</text>
<circle cx="507.54" cy="54.44" r="5" fill="#1f77b4" />
<text x="513.54" y="48.44" font-size="10">capability11</text>
<circle cx="235.62" cy="295.32" r="5" fill="#1f77b4" />
<text x="241.62" y="289.32" font-size="10">capability12</text>
<circle cx="235.62" cy="294.63" r="5" fill="#1f77b4" />
<text x="241.62" y="288.63" font-size="10">capability13</text>
<circle cx="50.00" cy="531.79" r="5" fill="#1f77b4" />
<text x="56.00" y="525.79" font-size="10">capability2</text>
<circle cx="50.00" cy="531.79" r="5" fill="#1f77b4" />
<text x="56.00" y="525.79" font-size="10">capability3</text>
<circle cx="50.00" cy="550.00" r="5" fill="#1f77b4" />
<text x="56.00" y="544.00" font-size="10">capability4</text>
<circle cx="50.00" cy="487.73" r="5" fill="#1f77b4" />
<text x="56.00" y="481.73" font-size="10">capability5</text>
<circle cx="50.00" cy="477.71" r="5" fill="#1f77b4" />
<text x="56.00" y="471.71" font-size="10">capability6</text>
<circle cx="50.00" cy="477.71" r="5" fill="#1f77b4" />
<text x="56.00" y="471.71" font-size="10">capability7</text>
<circle cx="167.11" cy="396.48" r="5" fill="#1f77b4" />
<text x="173.11" y="390.48" font-size="10">capability8</text>
<circle cx="235.62" cy="372.95" r="5" fill="#1f77b4" />
<text x="241.62" y="366.95" font-size="10">capability9</text>
<circle cx="750.00" cy="92.64" r="5" fill="#1f77b4" />
<text x="756.00" y="86.64" font-size="10">impassable1</text>
<circle cx="750.00" cy="50.00" r="5" fill="#1f77b4" />
<text x="756.00" y="44.00" font-size="10">impassable2</text>
</svg>