<svg xmlns="http://www.w3.org/2000/svg" width="800" height="600">
<text x="400" y="30" text-anchor="middle" font-size="18">Algorithm 2: Theoretical vs Generated Nodes</text>
<text x="400" y="585" text-anchor="middle" font-size="14">log10(Theoretical worst-case nodes)</text>
<text x="20" y="300" transform="rotate(-90,20,300)" text-anchor="middle" font-size="14">log10(Generated nodes)</text>
<circle cx="50.00" cy="532.08" r="5" fill="#1f77b4" />
<text x="56.00" y="526.08" font-size="10">capability1</text>
<circle cx="293.65" cy="268.77" r="5" fill="#1f77b4" />
<text x="299.65" y="262.77" font-size="10">capability10</text>
<circle cx="750.00" cy="50.00" r="5" fill="#1f77b4" />
<text x="756.00" y="44.00" font-size="10">capability11</text>
<circle cx="692.65" cy="304.13" r="5" fill="#1f77b4" />
<text x="698.65" y="298.13" font-size="10">capability12</text>
<circle cx="503.93" cy="297.90" r="5" fill="#1f77b4" />
<text x="509.93" y="291.90" font-size="10">capability13</text>
<circle cx="51.03" cy="509.51" r="5" fill="#1f77b4" />
<text x="57.03" y="503.51" font-size="10">capability2</text>
<circle cx="51.03" cy="509.51" r="5" fill="#1f77b4" />
<text x="57.03" y="503.51" font-size="10">capability3</text>
<circle cx="50.00" cy="550.00" r="5" fill="#1f77b4" />
<text x="56.00" y="544.00" font-size="10">capability4</text>
<circle cx="116.10" cy="467.29" r="5" fill="#1f77b4" />
<text x="122.10" y="461.29" font-size="10">capability5</text>
<circle cx="182.20" cy="455.44" r="5" fill="#1f77b4" />
<text x="188.20" y="449.44" font-size="10">capability6</text>
<circle cx="182.20" cy="458.12" r="5" fill="#1f77b4" />
<text x="188.20" y="452.12" font-size="10">capability7</text>
<circle cx="246.14" cy="348.09" r="5" fill="#1f77b4" />
<text x="252.14" y="342.09" font-size="10">capability8</text>
<circle cx="308.92" cy="254.01" r="5" fill="#1f77b4" />
<text x="314.92" y="248.01" font-size="10">capability9</text>
<circle cx="683.41" cy="95.70" r="5" fill="#1f77b4" />
<text x="689.41" y="89.70" font-size="10">impassable1</text>
<circle cx="683.41" cy="55.17" r="5" fill="#1f77b4" />
<text x="689.41" y="49.17" font-size="10">impassable2</text>
</svg>