<svg xmlns="http://www.w3.org/2000/svg" width="800" height="600">
<text x="400" y="30" text-anchor="middle" font-size="18">Comparative space usage vs Algorithm 1 theoretical bound</text>
<text x="400" y="585" text-anchor="middle" font-size="14">log10(Algorithm 1 theoretical space)</text>
<text x="20" y="300" transform="rotate(-90,20,300)" text-anchor="middle" font-size="14">log10(Expanded nodes)</text>
<circle cx="50.00" cy="550.00" r="5" fill="#1f77b4" />
<text x="56.00" y="544.00" font-size="10">capability1</text>
<circle cx="50.00" cy="550.00" r="5" fill="#1f77b4" />
<text x="56.00" y="544.00" font-size="10">capability1</text>
<circle cx="50.00" cy="550.00" r="5" fill="#1f77b4" />
<text x="56.00" y="544.00" font-size="10">capability1</text>
<circle cx="50.00" cy="252.62" r="5" fill="#1f77b4" />
<text x="56.00" y="246.62" font-size="10">capability10</text>
<circle cx="50.00" cy="68.23" r="5" fill="#1f77b4" />
<text x="56.00" y="62.23" font-size="10">capability10</text>
<circle cx="50.00" cy="252.62" r="5" fill="#1f77b4" />
<text x="56.00" y="246.62" font-size="10">capability10</text>
<circle cx="50.00" cy="515.05" r="5" fill="#1f77b4" />
<text x="56.00" y="509.05" font-size="10">capability2</text>
<circle cx="50.00" cy="515.05" r="5" fill="#1f77b4" />
<text x="56.00" y="509.05" font-size="10">capability2</text>
<circle cx="50.00" cy="515.05" r="5" fill="#1f77b4" />
<text x="56.00" y="509.05" font-size="10">capability2</text>
<circle cx="50.00" cy="515.05" r="5" fill="#1f77b4" />
<text x="56.00" y="509.05" font-size="10">capability3</text>
<circle cx="50.00" cy="515.05" r="5" fill="#1f77b4" />
<text x="56.00" y="509.05" font-size="10">capability3</text>
<circle cx="50.00" cy="515.05" r="5" fill="#1f77b4" />
<text x="56.00" y="509.05" font-size="10">capability3</text>
<circle cx="50.00" cy="550.00" r="5" fill="#1f77b4" />
<text x="56.00" y="544.00" font-size="10">capability4</text>
<circle cx="50.00" cy="550.00" r="5" fill="#1f77b4" />
<text x="56.00" y="544.00" font-size="10">capability4</text>
<circle cx="50.00" cy="550.00" r="5" fill="#1f77b4" />
<text x="56.00" y="544.00" font-size="10">capability4</text>
<circle cx="50.00" cy="430.50" r="5" fill="#1f77b4" />
<text x="56.00" y="424.50" font-size="10">capability5</text>
<circle cx="50.00" cy="430.50" r="5" fill="#1f77b4" />
<text x="56.00" y="424.50" font-size="10">capability5</text>
<circle cx="50.00" cy="430.50" r="5" fill="#1f77b4" />
<text x="56.00" y="424.50" font-size="10">capability5</text>
<circle cx="50.00" cy="411.27" r="5" fill="#1f77b4" />
<text x="56.00" y="405.27" font-size="10">capability6</text>
<circle cx="50.00" cy="411.27" r="5" fill="#1f77b4" />
<text x="56.00" y="405.27" font-size="10">capability6</text>
<circle cx="50.00" cy="411.27" r="5" fill="#1f77b4" />
<text x="56.00" y="405.27" font-size="10">capability6</text>
<circle cx="50.00" cy="411.27" r="5" fill="#1f77b4" />
<text x="56.00" y="405.27" font-size="10">capability7</text>
<circle cx="50.00" cy="411.27" r="5" fill="#1f77b4" />
<text x="56.00" y="405.27" font-size="10">capability7</text>
<circle cx="50.00" cy="411.27" r="5" fill="#1f77b4" />
<text x="56.00" y="405.27" font-size="10">capability7</text>
<circle cx="50.00" cy="255.40" r="5" fill="#1f77b4" />
<text x="56.00" y="249.40" font-size="10">capability8</text>
<circle cx="50.00" cy="224.80" r="5" fill="#1f77b4" />
<text x="56.00" y="218.80" font-size="10">capability8</text>
<circle cx="50.00" cy="255.40" r="5" fill="#1f77b4" />
<text x="56.00" y="249.40" font-size="10">capability8</text>
<circle cx="50.00" cy="210.24" r="5" fill="#1f77b4" />
<text x="56.00" y="204.24" font-size="10">capability9</text>
<circle cx="50.00" cy="50.00" r="5" fill="#1f77b4" />
<text x="56.00" y="44.00" font-size="10">capability9</text>
<circle cx="50.00" cy="210.24" r="5" fill="#1f77b4" />
<text x="56.00" y="204.24" font-size="10">capability9</text>
</svg>