<svg xmlns="http://www.w3.org/2000/svg" width="800" height="600">
<text x="400" y="30" text-anchor="middle" font-size="18">Algorithm 1: Theoretical vs Generated Nodes</text>
<text x="400" y="585" text-anchor="middle" font-size="14">log10(Theoretical worst-case nodes)</text>
<text x="20" y="300" transform="rotate(-90,20,300)" text-anchor="middle" font-size="14">log10(Generated nodes)</text>
<circle cx="50.00" cy="501.52" r="5" fill="#1f77b4" />
<text x="56.00" y="495.52" font-size="10">capability1</text>
<circle cx="750.00" cy="116.68" r="5" fill="#1f77b4" />
<text x="756.00" y="110.68" font-size="10">capability10</text>
<circle cx="50.00" cy="440.45" r="5" fill="#1f77b4" />
<text x="56.00" y="434.45" font-size="10">capability2</text>
<circle cx="50.00" cy="440.45" r="5" fill="#1f77b4" />
<text x="56.00" y="434.45" font-size="10">capability3</text>
<circle cx="50.00" cy="550.00" r="5" fill="#1f77b4" />
<text x="56.00" y="544.00" font-size="10">capability4</text>
<circle cx="351.47" cy="326.21" r="5" fill="#1f77b4" />
<text x="357.47" y="320.21" font-size="10">capability5</text>
<circle cx="527.82" cy="294.14" r="5" fill="#1f77b4" />
<text x="533.82" y="288.14" font-size="10">capability6</text>
<circle cx="527.82" cy="301.38" r="5" fill="#1f77b4" />
<text x="533.82" y="295.38" font-size="10">capability7</text>
<circle cx="652.95" cy="93.56" r="5" fill="#1f77b4" />
<text x="658.95" y="87.56" font-size="10">capability8</text>
<circle cx="750.00" cy="50.00" r="5" fill="#1f77b4" />
<text x="756.00" y="44.00" font-size="10">capability9</text>
</svg>